# File created by Blade
# Date/Time:  Wed Jan 21 15:15:22 2015
# Frame Rate: 120.000 fps
#------------------------------------------------------
:FULLY-SPECIFIED
:DEGREES
1204
root 17.771330 35.463457 -24.691550 185.878757 -82.753115 -175.179372
Spine -17.280558 6.361992 -4.993431
Head 1.651412 1.232112 5.632877
LeftShoulder -13.315399 -30.040674 16.983981
LeftArm -0.380066 7.511960 -12.820363
LeftForeArm 10.463653 0.000000 -0.927140
LeftHand -5.663263 -0.000000 -3.415680
LeftHandThumb1 -26.253704 0.000000 33.147579
RightShoulder -10.033410 -8.283531 -6.586832
RightArm 7.139512 28.300329 23.493823
RightForeArm -34.591155 -0.000000 7.043991
RightHand -4.863613 0.000000 8.551685
RightHandThumb1 -24.326973 -0.000000 -32.862282
LeftUpLeg -14.779999 9.064470 7.230527
LeftLeg 14.092059 -0.000000 -0.000000
LeftFoot -21.007586 23.237783 -15.553640
LeftToeBase 26.114088 -0.000000 -0.000000
RightUpLeg -5.512603 -2.326655 -2.751033
RightLeg 1.365940 -0.000000 -0.000000
RightFoot -22.147317 -20.532925 15.226729
RightToeBase 24.009193 -0.000000 -0.000000
1205
root 17.797501 35.479997 -24.782250 186.876867 -82.949310 -176.129424
Spine -17.356676 6.251269 -5.043665
Head 1.662834 1.319266 5.647955
LeftShoulder -13.382434 -30.169504 17.245193
LeftArm -0.542190 7.110909 -12.491868
LeftForeArm 10.605656 -0.000000 -1.142806
LeftHand -5.775732 -0.000000 -3.482670
LeftHandThumb1 -26.253704 0.000000 33.147579
RightShoulder -10.086424 -8.338996 -6.719045
RightArm 7.103481 28.701353 23.094366
RightForeArm -34.711682 0.000000 6.973826
RightHand -4.893261 -0.000000 8.275244
RightHandThumb1 -24.326973 -0.000000 -32.862282
LeftUpLeg -14.728720 9.175098 7.210127
LeftLeg 13.734206 -0.000000 -0.000000
LeftFoot -20.650102 23.024985 -15.231124
LeftToeBase 25.740878 -0.000000 -0.000000
RightUpLeg -5.319062 -2.387253 -2.734087
RightLeg 0.906899 -0.000000 -0.000000
RightFoot -21.972427 -20.589963 15.167845
RightToeBase 24.034835 -0.000000 -0.000000
1206
root 17.824909 35.495223 -24.867988 188.108381 -83.152953 -177.290295
Spine -17.478278 6.117819 -5.128486
Head 1.742345 1.342583 5.677690
LeftShoulder -13.483607 -30.203445 17.498636
LeftArm -0.562837 6.827599 -12.177354
LeftForeArm 10.501192 0.000000 -1.470642
LeftHand -5.808689 -0.000000 -3.589921
LeftHandThumb1 -26.253704 0.000000 33.147579
RightShoulder -10.101649 -8.407317 -6.843738
RightArm 7.032409 29.020621 22.671390
RightForeArm -34.829798 -0.000000 6.860863
RightHand -4.941732 -0.000000 7.978621
RightHandThumb1 -24.326973 -0.000000 -32.862282
LeftUpLeg -14.705357 9.312015 7.149436
LeftLeg 13.394963 -0.000000 -0.000000
LeftFoot -20.340995 22.721374 -14.929216
LeftToeBase 24.877835 -0.000000 -0.000000
RightUpLeg -5.198666 -2.506582 -2.731482
RightLeg 0.546065 -0.000000 -0.000000
RightFoot -21.853015 -20.629392 15.069885
RightToeBase 24.132977 -0.000000 -0.000000
1207
root 17.855478 35.509171 -24.948811 189.557441 -83.376017 -178.614729
Spine -17.674904 5.981159 -5.253940
Head 1.855774 1.323569 5.761158
LeftShoulder -13.573820 -30.211574 17.749375
LeftArm -0.532321 6.529522 -11.872872
LeftForeArm 10.419916 -0.000000 -1.762970
LeftHand -5.889246 0.000000 -3.840154
LeftHandThumb1 -26.253704 0.000000 33.147579
RightShoulder -10.146903 -8.429726 -6.954422
RightArm 6.892868 29.051655 22.210910
RightForeArm -34.547823 -0.000000 6.834791
RightHand -5.150960 0.000000 7.836100
RightHandThumb1 -24.326973 -0.000000 -32.862282
LeftUpLeg -14.734244 9.311368 7.072070
LeftLeg 13.050034 -0.000000 -0.000000
LeftFoot -20.175127 22.461949 -14.808425
LeftToeBase 23.942828 -0.000000 -0.000000
RightUpLeg -5.156075 -2.595215 -2.737522
RightLeg 0.216088 -0.000000 -0.000000
RightFoot -21.767087 -20.772918 14.957728
RightToeBase 24.250277 -0.000000 -0.000000
1208
root 17.879243 35.519691 -25.027789 190.841464 -83.576594 -179.882473
Spine -17.750256 5.870823 -5.348003
Head 1.997794 1.332332 5.814910
LeftShoulder -13.613139 -30.273608 17.960310
LeftArm -0.571927 6.322920 -11.545029
LeftForeArm 10.400678 -0.000000 -1.972206
LeftHand -6.063798 0.000000 -4.097742
LeftHandThumb1 -26.253704 0.000000 33.147579
RightShoulder -10.182145 -8.453678 -7.035057
RightArm 6.753378 29.177564 21.721407
RightForeArm -34.667506 0.000000 6.799474
RightHand -5.142398 -0.000000 7.600331
RightHandThumb1 -24.326973 -0.000000 -32.862282
LeftUpLeg -14.653677 9.400134 7.025612
LeftLeg 12.786775 -0.000000 -0.000000
LeftFoot -20.235761 21.935136 -14.765536
LeftToeBase 23.214221 -0.000000 -0.000000
RightUpLeg -5.028367 -2.737426 -2.728684
RightLeg -0.051386 -0.000000 0.000000
RightFoot -21.714184 -20.825205 14.941513
RightToeBase 24.194223 -0.000000 -0.000000
1209
root 17.903840 35.528344 -25.100065 192.206645 -83.778111 -181.220959
Spine -17.827540 5.747480 -5.441996
Head 2.109826 1.331442 5.918137
LeftShoulder -13.696376 -30.383446 18.213922
LeftArm -0.594719 6.100609 -11.259533
LeftForeArm 10.468815 -0.000000 -2.172643
LeftHand -6.190519 -0.000000 -4.278870
LeftHandThumb1 -26.253704 0.000000 33.147579
RightShoulder -10.191448 -8.382475 -7.141254
RightArm 6.600976 29.408094 21.287360
RightForeArm -34.850021 -0.000000 6.701692
RightHand -5.143587 -0.000000 7.371900
RightHandThumb1 -24.326973 -0.000000 -32.862282
LeftUpLeg -14.586775 9.415290 6.974686
LeftLeg 12.553435 -0.000000 -0.000000
LeftFoot -20.511568 21.454401 -14.923546
LeftToeBase 22.744387 -0.000000 -0.000000
RightUpLeg -4.939990 -2.890688 -2.721344
RightLeg -0.272081 -0.000000 0.000000
RightFoot -21.675340 -20.937227 14.749345
RightToeBase 24.299979 -0.000000 -0.000000
1210
root 17.927021 35.535063 -25.170378 193.303055 -84.015492 -182.306210
Spine -17.884853 5.597483 -5.483248
Head 2.234707 1.301737 5.995718
LeftShoulder -13.776989 -30.517938 18.438492
LeftArm -0.629873 5.889919 -10.963247
LeftForeArm 10.525601 -0.000000 -2.287125
LeftHand -6.351665 -0.000000 -4.484660
LeftHandThumb1 -26.253704 0.000000 33.147579
RightShoulder -10.238328 -8.293210 -7.251837
RightArm 6.451798 29.364207 20.838357
RightForeArm -34.746871 -0.000000 6.714608
RightHand -5.274412 -0.000000 7.259688
RightHandThumb1 -24.326973 -0.000000 -32.862282
LeftUpLeg -14.515782 9.384997 6.973975
LeftLeg 12.357998 -0.000000 -0.000000
LeftFoot -21.039100 20.923472 -15.182847
LeftToeBase 22.692564 -0.000000 -0.000000
RightUpLeg -4.841991 -3.052820 -2.671097
RightLeg -0.458319 -0.000000 0.000000
RightFoot -21.654202 -21.064182 14.587129
RightToeBase 24.394553 -0.000000 -0.000000
1211
root 17.950551 35.539711 -25.231167 194.240549 -84.226703 -183.250200
Spine -17.923278 5.465340 -5.461815
Head 2.394915 1.317111 6.017633
LeftShoulder -13.858907 -30.693497 18.612139
LeftArm -0.690878 5.728524 -10.650802
LeftForeArm 10.586660 -0.000000 -2.359682
LeftHand -6.500042 0.000000 -4.622259
LeftHandThumb1 -26.253704 0.000000 33.147579
RightShoulder -10.294138 -8.224502 -7.416945
RightArm 6.403890 29.830068 20.536191
RightForeArm -35.224163 -0.000000 6.683548
RightHand -5.197581 -0.000000 7.253082
RightHandThumb1 -24.326973 -0.000000 -32.862282
LeftUpLeg -14.460805 9.422751 6.953178
LeftLeg 12.261431 -0.000000 -0.000000
LeftFoot -21.732168 20.453806 -15.400826
LeftToeBase 22.473165 -0.000000 -0.000000
RightUpLeg -4.738768 -3.132865 -2.628495
RightLeg -0.632463 -0.000000 0.000000
RightFoot -21.627856 -21.215493 14.543787
RightToeBase 24.248336 -0.000000 -0.000000
1212
root 17.969291 35.543699 -25.290801 194.951804 -84.454008 -183.996539
Spine -17.943803 5.311311 -5.419306
Head 2.577657 1.242464 6.037278
LeftShoulder -13.987863 -30.843926 18.804728
LeftArm -0.711937 5.547073 -10.363564
LeftForeArm 10.700636 -0.000000 -2.355291
LeftHand -6.676100 -0.000000 -4.712998
LeftHandThumb1 -26.253704 0.000000 33.147579
RightShoulder -10.357288 -8.202837 -7.469346
RightArm 6.417272 29.984750 20.131974
RightForeArm -35.163195 -0.000000 6.646318
RightHand -5.526964 -0.000000 7.073542
RightHandThumb1 -24.326973 -0.000000 -32.862282
LeftUpLeg -14.348539 9.447770 6.977148
LeftLeg 12.175365 -0.000000 -0.000000
LeftFoot -22.483867 19.975816 -15.445398
LeftToeBase 22.723632 -0.000000 -0.000000
RightUpLeg -4.601438 -3.215893 -2.557736
RightLeg -0.800897 -0.000000 0.000000
RightFoot -21.624379 -21.377140 14.421810
RightToeBase 24.349919 -0.000000 -0.000000
1213
root 17.989356 35.546785 -25.343153 195.400607 -84.680234 -184.461306
Spine -17.986969 5.177467 -5.312652
Head 2.755006 1.188015 6.000465
LeftShoulder -14.078557 -30.992290 18.934069
LeftArm -0.765080 5.465139 -10.089774
LeftForeArm 10.663201 -0.000000 -2.336953
LeftHand -6.807991 -0.000000 -4.710995
LeftHandThumb1 -26.253704 0.000000 33.147579
RightShoulder -10.371710 -7.982064 -7.648101
RightArm 6.240421 30.101700 19.741084
RightForeArm -35.288312 -0.000000 6.654996
RightHand -5.578590 -0.000000 7.080759
RightHandThumb1 -24.326973 -0.000000 -32.862282
LeftUpLeg -14.303151 9.519757 6.994254
LeftLeg 12.194948 -0.000000 -0.000000
LeftFoot -23.237537 19.608485 -15.813395
LeftToeBase 22.353753 -0.000000 -0.000000
RightUpLeg -4.502581 -3.225613 -2.473017
RightLeg -0.935094 -0.000000 0.000000
RightFoot -21.622707 -21.582261 14.396960
RightToeBase 24.305650 -0.000000 -0.000000
